<?xml version="1.0" encoding="UTF-8"?>
<svg xmlns="http://www.w3.org/2000/svg" viewBox="0 0 384 512" width="384" height="512">
  <!-- UofT Coat of Arms - Dark Mode Version -->
  
  <!-- Tree at top -->
  <g fill="#2563eb" stroke="#2563eb" stroke-width="1.5">
    <!-- Main tree trunk -->
    <path d="M192 20 C175 25, 160 35, 148 50 C135 65, 125 82, 120 100 C118 110, 118 120, 122 130 C130 145, 145 155, 162 160 L162 180 L222 180 L222 160 C239 155, 254 145, 262 130 C266 120, 266 110, 264 100 C259 82, 249 65, 236 50 C224 35, 209 25, 192 20 Z"/>
    
    <!-- Tree foliage - multiple organic shapes -->
    <circle cx="150" cy="85" r="22"/>
    <circle cx="192" cy="65" r="28"/>
    <circle cx="234" cy="85" r="22"/>
    <circle cx="130" cy="120" r="18"/>
    <circle cx="170" cy="110" r="25"/>
    <circle cx="214" cy="110" r="25"/>
    <circle cx="254" cy="120" r="18"/>
    <circle cx="192" cy="130" r="30"/>
    
    <!-- Tree base/roots -->
    <path d="M140 180 C120 185, 100 195, 85 210 L85 220 L299 220 L299 210 C284 195, 264 185, 244 180"/>
  </g>
  
  <!-- Shield main structure -->
  <path d="M60 240 L324 240 L324 260 L324 400 C324 440, 300 470, 260 485 C230 495, 154 495, 124 485 C84 470, 60 440, 60 400 L60 260 Z" fill="none" stroke="#2563eb" stroke-width="3"/>
  
  <!-- Crown section (top white area) -->
  <rect x="60" y="240" width="264" height="80" fill="#f8f9fa" stroke="#2563eb" stroke-width="2"/>
  
  <!-- Crown decorative elements -->
  <g fill="#2563eb">
    <!-- Dots pattern across crown -->
    <circle cx="80" cy="260" r="2"/>
    <circle cx="95" cy="260" r="2"/>
    <circle cx="110" cy="260" r="2"/>
    <circle cx="125" cy="260" r="2"/>
    <circle cx="140" cy="260" r="2"/>
    <circle cx="155" cy="260" r="2"/>
    <circle cx="170" cy="260" r="2"/>
    <circle cx="185" cy="260" r="2"/>
    <circle cx="200" cy="260" r="2"/>
    <circle cx="215" cy="260" r="2"/>
    <circle cx="230" cy="260" r="2"/>
    <circle cx="245" cy="260" r="2"/>
    <circle cx="260" cy="260" r="2"/>
    <circle cx="275" cy="260" r="2"/>
    <circle cx="290" cy="260" r="2"/>
    <circle cx="305" cy="260" r="2"/>
    
    <!-- Crown curves and details -->
    <path d="M80 275 C100 270, 120 275, 140 280 C160 285, 180 290, 200 285 C220 280, 240 285, 260 280 C280 275, 300 270, 320 275 L320 300 C300 295, 280 290, 260 295 C240 300, 220 305, 200 300 C180 295, 160 290, 140 295 C120 300, 100 295, 80 300 Z"/>
    
    <!-- Cross at center top -->
    <rect x="190" y="250" width="4" height="20"/>
    <rect x="183" y="257" width="18" height="4"/>
  </g>
  
  <!-- Blue shield section -->
  <rect x="60" y="320" width="264" height="160" fill="#1e40af"/>
  
  <!-- Two open books -->
  <g fill="white" stroke="white" stroke-width="1">
    <!-- Left book -->
    <rect x="90" y="340" width="50" height="35" rx="2"/>
    <line x1="95" y1="347" x2="135" y2="347" stroke-width="0.8"/>
    <line x1="95" y1="352" x2="135" y2="352" stroke-width="0.8"/>
    <line x1="95" y1="357" x2="135" y2="357" stroke-width="0.8"/>
    <line x1="95" y1="362" x2="135" y2="362" stroke-width="0.8"/>
    <line x1="95" y1="367" x2="135" y2="367" stroke-width="0.8"/>
    <line x1="115" y1="340" x2="115" y2="375" stroke-width="1"/>
    
    <!-- Right book -->
    <rect x="244" y="340" width="50" height="35" rx="2"/>
    <line x1="249" y1="347" x2="289" y2="347" stroke-width="0.8"/>
    <line x1="249" y1="352" x2="289" y2="352" stroke-width="0.8"/>
    <line x1="249" y1="357" x2="289" y2="357" stroke-width="0.8"/>
    <line x1="249" y1="362" x2="289" y2="362" stroke-width="0.8"/>
    <line x1="249" y1="367" x2="289" y2="367" stroke-width="0.8"/>
    <line x1="269" y1="340" x2="269" y2="375" stroke-width="1"/>
  </g>
  
  <!-- Beaver in center -->
  <g fill="white">
    <!-- Body -->
    <ellipse cx="192" cy="420" rx="28" ry="20"/>
    <!-- Head -->
    <ellipse cx="170" cy="410" rx="12" ry="10"/>
    <!-- Tail -->
    <ellipse cx="225" cy="425" rx="12" ry="8"/>
    <!-- Tail texture lines -->
    <line x1="220" y1="420" x2="230" y2="420" stroke="#1e40af" stroke-width="0.8"/>
    <line x1="218" y1="425" x2="232" y2="425" stroke="#1e40af" stroke-width="0.8"/>
    <line x1="220" y1="430" x2="230" y2="430" stroke="#1e40af" stroke-width="0.8"/>
    <!-- Eye -->
    <circle cx="165" cy="407" r="1.5" fill="#1e40af"/>
    <!-- Ear -->
    <ellipse cx="162" cy="403" rx="2" ry="3"/>
  </g>
  
  <!-- Banner with motto -->
  <g fill="white" stroke="#2563eb" stroke-width="2">
    <!-- Left banner piece -->
    <path d="M40 490 C40 485, 45 480, 50 480 L100 480 C105 480, 110 485, 110 490 L110 500 C110 505, 105 510, 100 510 L50 510 C45 510, 40 505, 40 500 Z"/>
    
    <!-- Center banner piece -->
    <rect x="110" y="480" width="164" height="30" rx="0"/>
    
    <!-- Right banner piece -->
    <path d="M274 490 C274 485, 279 480, 284 480 L334 480 C339 480, 344 485, 344 490 L344 500 C344 505, 339 510, 334 510 L284 510 C279 510, 274 505, 274 500 Z"/>
  </g>
  
  <!-- Banner text -->
  <text x="75" y="498" text-anchor="middle" fill="#2563eb" font-family="serif" font-size="11" font-weight="bold">VELUT</text>
  <text x="192" y="498" text-anchor="middle" fill="#2563eb" font-family="serif" font-size="13" font-weight="bold">ARBOR</text>
  <text x="309" y="498" text-anchor="middle" fill="#2563eb" font-family="serif" font-size="11" font-weight="bold">ÆVO</text>
</svg>